<?xml version="1.0" encoding="utf-8"?>
<!-- Generator: Adobe Illustrator 14.0.0, SVG Export Plug-In . SVG Version: 6.00 Build 43363)  -->
<!DOCTYPE svg PUBLIC "-//W3C//DTD SVG 1.1//EN" "http://www.w3.org/Graphics/SVG/1.1/DTD/svg11.dtd">
<svg version="1.1" id="Layer_1" xmlns="http://www.w3.org/2000/svg" xmlns:xlink="http://www.w3.org/1999/xlink" x="0px" y="0px"
	 width="413.889px" height="218.75px" viewBox="0 0 413.889 218.75" enable-background="new 0 0 413.889 218.75"
	 xml:space="preserve">
<polygon points="329.572,137.125 52.505,137.125 85.216,54.337 362.281,54.337 "/>
<polyline fill="none" stroke="#FFFFFF" stroke-width="3" points="340.197,67.626 318.167,121.024 191.5,121.024 "/>
<path fill="none" stroke="#FFFFFF" stroke-width="3" d="M124.642,107.86"/>
<g>
	<rect x="60.009" y="65.758" fill="none" width="263.986" height="158.992"/>
	<path fill="#FFFFFF" d="M125.237,80.235h-5.897l-9.537,26.999l-10.192,11.174l-19.875,6.45l-14.123-6.45l-4.805-14.474l18.491-7.8
		l4.805,14.474l3.058-1.274l10.265-29.099H89.93l5.096-14.55h35.381L125.237,80.235z"/>
	<path fill="#FFFFFF" d="M184.781,95.984l-12.958,5.175h-15.142l-2.33,6.6h6.697l-5.096,14.475h-34.507l5.096-14.475h5.969
		l9.683-27.523h-6.698l5.096-14.55h36.4l12.084,5.475l3.13,13.2L184.781,95.984z M164.106,80.235l-3.567,9.749h7.79l3.494-9.749
		H164.106z"/>
</g>
<g>
	<polygon fill="none" points="335.021,143.993 184.32,143.993 214.203,66.147 364.902,66.147 	"/>
	<path fill="#FFFFFF" d="M221.079,94.305h-17.866l0.171-0.448l5.45-3.622l7.654-19.938l-2.67-3.621l0.201-0.523h17.866
		c8.154,0,13.063,5.34,9.708,14.077C238.24,88.966,229.233,94.305,221.079,94.305z M230.764,78.137
		c1.965-5.114,0.965-6.57-0.957-6.57h-2.607l-6.65,17.324h2.608c1.921,0,4.038-1.456,5.987-6.534L230.764,78.137z"/>
	<path fill="#FFFFFF" d="M242.212,94.305l0.171-0.448l5.414-3.622l7.652-19.938l-2.631-3.621l0.2-0.523h30.114l-4.558,11.873h-0.507
		l-3.934-5.899h-8.189l-2.207,5.75h4.566l4.254-3.622h0.506l-4.601,11.985h-0.507l-1.459-3.659h-4.566l-2.221,5.787h8.189
		l8.916-6.421h0.508l-4.744,12.358H242.212z"/>
</g>
<g>
	<polygon fill="none" points="315.114,220.448 31.391,220.448 45.704,147.754 329.429,147.754 	"/>
	<path fill="#ED1C24" d="M61.252,163.108h-4.029l1.122-9.21c-0.283,0.506-1.272,2.256-1.64,2.832l-3.812,6.378h-3.776l1.298-15.358
		h4.306l-0.84,6.953c-0.022,0.346-0.215,1.912-0.233,2.234c0.486-0.943,0.527-1.037,0.972-1.773l4.499-7.414h3.708l-0.84,6.953
		c-0.071,0.83-0.09,0.922-0.198,1.705c-0.036,0.184-0.067,0.46-0.059,0.529c0.665-1.267,0.738-1.404,1.426-2.557l3.907-6.631h3.546
		L61.252,163.108z"/>
	<path fill="#ED1C24" d="M82.496,163.108H71.19l5.58-15.358H87.8l-1.238,3.361H80l-0.867,2.418h5.503l-1.211,3.339h-5.526
		l-0.973,2.717h6.863L82.496,163.108z"/>
	<path fill="#ED1C24" d="M94.563,147.75h6.332c1.819,0,2.611,0.185,3.321,0.553c0.956,0.529,1.677,1.658,1.359,3.27
		c-0.199,1.014-0.979,2.994-3.999,3.707c0.743,0.322,1.047,0.529,1.288,0.829c0.531,0.575,0.754,1.542,0.564,2.51
		c-0.286,1.45-1.281,2.878-2.329,3.522c-1.157,0.737-2.309,0.968-3.759,0.968h-8.358L94.563,147.75z M94.646,159.723h2.303
		c0.806,0,1.159-0.161,1.403-0.346c0.432-0.322,0.661-0.667,0.747-1.104c0.127-0.646-0.036-1.451-1.464-1.451h-1.935L94.646,159.723
		z M96.884,153.621h1.75c0.576,0,2.096,0,2.372-1.404c0.072-0.368-0.039-0.736-0.339-0.967c-0.365-0.254-0.964-0.254-1.079-0.254
		h-1.75L96.884,153.621z"/>
	<path fill="#ED1C24" d="M125.316,147.75h5.111c1.819,0,3.625,0.069,5.001,1.496c1.275,1.359,1.466,3.316,1.058,5.389
		c-0.581,2.947-2.257,5.618-4.851,7.207c-1.99,1.221-3.726,1.267-6.305,1.267h-5.618L125.316,147.75z M125.547,159.677h1.036
		c0.529,0,1.979,0,2.931-0.736c1.116-0.876,2.032-2.603,2.399-4.468c0.331-1.681,0.142-3.408-1.908-3.408h-1.313L125.547,159.677z"
		/>
	<path fill="#ED1C24" d="M151.436,163.108H140.13l5.58-15.358h11.029l-1.238,3.361h-6.562l-0.867,2.418h5.503l-1.211,3.339h-5.526
		l-0.973,2.717h6.863L151.436,163.108z"/>
	<path fill="#ED1C24" d="M166.327,163.108h-4.467l0.054-15.358h4.697l-0.217,7.068c-0.021,1.037-0.012,1.221-0.057,2.855
		c0.041-0.092,0.247-0.438,0.39-0.69c0.811-1.313,0.911-1.474,1.755-2.832l4-6.401h3.754L166.327,163.108z"/>
	<path fill="#ED1C24" d="M187.896,163.108H176.59l5.58-15.358h11.029l-1.238,3.361h-6.562l-0.867,2.418h5.503l-1.211,3.339h-5.526
		l-0.972,2.717h6.861L187.896,163.108z"/>
	<path fill="#ED1C24" d="M204.859,163.108h-10.477l5.58-15.358h4.651l-4.256,11.674h5.848L204.859,163.108z"/>
	<path fill="#ED1C24" d="M218.274,163.476c-3.477,0-6.274-2.279-5.367-6.885c0.894-4.536,4.581-9.233,9.899-9.233
		c3.8,0,6.087,2.647,5.266,6.815C227.089,159.17,223.179,163.476,218.274,163.476z M223.451,153.322
		c0.15-0.76,0.265-2.395-1.509-2.395c-1.013,0-1.798,0.599-2.499,1.704c-0.926,1.427-1.77,4.19-1.915,4.927
		c-0.104,0.529-0.462,2.35,1.495,2.35c1.818,0,2.739-1.75,3.768-4.514C222.836,155.279,223.32,153.99,223.451,153.322z"/>
	<path fill="#ED1C24" d="M235.978,163.108h-4.443l5.58-15.358h5.065c2.003,0,2.911,0.069,3.931,0.736
		c1.195,0.83,1.674,2.257,1.37,3.8c-0.39,1.979-2.176,5.204-6.459,5.204h-2.993L235.978,163.108z M239.229,154.197h1.06
		c0.897,0,2.453-0.185,2.743-1.658s-1.367-1.474-1.736-1.474h-0.921L239.229,154.197z"/>
	<path fill="#ED1C24" d="M266.804,163.108h-4.307l2.969-8.175c0.457-1.266,0.483-1.289,1.412-3.43
		c0.082-0.186,0.274-0.691,0.361-0.898c-0.174,0.299-0.953,1.681-1.127,1.98c-0.408,0.667-0.513,0.852-0.981,1.588l-5.719,8.935
		h-2.763l0.7-8.935c0.004-0.253,0.164-1.772,0.195-1.934c0.163-1.175,0.187-1.289,0.244-1.818c-0.885,2.97-1.208,3.914-1.771,5.479
		l-2.639,7.208h-3.454l5.58-15.358h6.171l-0.532,6.793c0.006,0.207-0.047,1.059-0.051,1.197c0.297-0.576,0.457-0.807,0.695-1.197
		l4.378-6.793h6.217L266.804,163.108z"/>
	<path fill="#ED1C24" d="M285.378,163.108h-11.306l5.58-15.358h11.029l-1.238,3.361h-6.562l-0.867,2.418h5.503l-1.211,3.339h-5.526
		l-0.972,2.717h6.861L285.378,163.108z"/>
	<path fill="#ED1C24" d="M304.874,163.108h-3.407l-1.786-5.895c-0.331-1.128-0.722-2.647-0.768-3.822
		c-0.026,0.368-0.104,0.874-0.569,2.188l-2.749,7.529h-3.729l5.58-15.358h4.145l0.982,3.546c0.479,1.773,1.071,4.03,1.201,5.48
		c0.021-0.23,0.049-0.483,0.089-0.69c0.123-0.623,0.575-1.865,0.816-2.51l2.115-5.826h3.661L304.874,163.108z"/>
	<path fill="#ED1C24" d="M318.799,163.108h-4.444l4.32-11.882h-3.293l1.292-3.522h11.122l-1.292,3.522h-3.385L318.799,163.108z"/>
</g>
<g>
</g>
<line fill="none" stroke="#FFFFFF" stroke-width="3" stroke-linejoin="round" x1="345.833" y1="107.357" x2="196.499" y2="107.357"/>
<polygon fill="#FFFFFF" points="288.916,66.149 308.083,66.149 307.874,66.69 302.916,70.274 301.791,84.982 311.624,70.232 
	309.208,66.69 309.458,66.149 342.374,66.149 341.166,69.149 321.166,69.149 301.541,94.274 291.541,94.274 291.541,70.316 
	288.791,66.649 "/>
<polygon points="199.667,101.191 190.334,126.025 187.5,120.857 196,101.524 "/>
</svg>
